<?xml version="1.0" encoding="UTF-8" standalone="no"?>
<!-- Created with Inkscape (http://www.inkscape.org/) -->

<svg
   width="1280"
   height="720"
   viewBox="0 0 338.66666 190.5"
   version="1.1"
   id="svg1"
   xml:space="preserve"
   inkscape:version="1.3.2 (091e20e, 2023-11-25, custom)"
   sodipodi:docname="memoria.svg"
   xmlns:inkscape="http://www.inkscape.org/namespaces/inkscape"
   xmlns:sodipodi="http://sodipodi.sourceforge.net/DTD/sodipodi-0.dtd"
   xmlns="http://www.w3.org/2000/svg"
   xmlns:svg="http://www.w3.org/2000/svg"
   xmlns:rdf="http://www.w3.org/1999/02/22-rdf-syntax-ns#"
   xmlns:cc="http://creativecommons.org/ns#"
   xmlns:dc="http://purl.org/dc/elements/1.1/"><sodipodi:namedview
     id="namedview1"
     pagecolor="#ffffff"
     bordercolor="#666666"
     borderopacity="1.0"
     inkscape:showpageshadow="2"
     inkscape:pageopacity="0.0"
     inkscape:pagecheckerboard="0"
     inkscape:deskcolor="#d1d1d1"
     inkscape:document-units="mm"
     inkscape:zoom="0.46906808"
     inkscape:cx="20353.122"
     inkscape:cy="190.80386"
     inkscape:window-width="1366"
     inkscape:window-height="715"
     inkscape:window-x="-8"
     inkscape:window-y="712"
     inkscape:window-maximized="1"
     inkscape:current-layer="svg1"
     showgrid="false"><inkscape:page
       x="0"
       y="0"
       width="338.66666"
       height="190.5"
       id="page1"
       margin="0"
       bleed="0" /><inkscape:page
       x="348.66666"
       y="0"
       width="338.66666"
       height="190.5"
       id="page2"
       margin="0"
       bleed="0" /><inkscape:page
       x="697.33331"
       y="0"
       width="338.66666"
       height="190.5"
       id="page6"
       margin="0"
       bleed="0" /><inkscape:page
       x="1046"
       y="0"
       width="338.66666"
       height="190.5"
       id="page40"
       margin="0"
       bleed="0" /><inkscape:page
       x="1394.6667"
       y="0"
       width="338.66666"
       height="190.5"
       id="page41"
       margin="0"
       bleed="0" /><inkscape:page
       x="1743.3334"
       y="0"
       width="338.66666"
       height="190.5"
       id="page36"
       margin="0"
       bleed="0" /><inkscape:page
       x="2092"
       y="0"
       width="338.66666"
       height="190.5"
       id="page72"
       margin="0"
       bleed="0" /><inkscape:page
       x="2440.6667"
       y="0"
       width="338.66666"
       height="190.5"
       id="page77"
       margin="0"
       bleed="0" /><inkscape:page
       x="2789.3335"
       y="0"
       width="338.66666"
       height="190.5"
       id="page10"
       margin="0"
       bleed="0" /><inkscape:page
       x="3138.0002"
       y="0"
       width="338.66666"
       height="190.5"
       id="page11"
       margin="0"
       bleed="0" /><inkscape:page
       x="3486.667"
       y="0"
       width="338.66666"
       height="190.5"
       id="page12"
       margin="0"
       bleed="0" /><inkscape:page
       x="3835.3335"
       y="0"
       width="338.66666"
       height="190.5"
       id="page13"
       margin="0"
       bleed="0" /><inkscape:page
       x="4184"
       y="0"
       width="338.66666"
       height="190.5"
       id="page73"
       margin="0"
       bleed="0" /><inkscape:page
       x="4532.6665"
       y="0"
       width="338.66666"
       height="190.5"
       id="page74"
       margin="0"
       bleed="0" /><inkscape:page
       x="4881.333"
       y="0"
       width="338.66666"
       height="190.5"
       id="page75"
       margin="0"
       bleed="0" /><inkscape:page
       x="5229.9995"
       y="0"
       width="338.66666"
       height="190.5"
       id="page105"
       margin="0"
       bleed="0" /><inkscape:page
       x="5578.666"
       y="0"
       width="338.66666"
       height="190.5"
       id="page113"
       margin="0"
       bleed="0" /></sodipodi:namedview><defs
     id="defs1"><rect
       x="1799.3124"
       y="515.91658"
       width="347.4708"
       height="255.8264"
       id="rect6" /><rect
       x="638.24216"
       y="377.81951"
       width="641.38005"
       height="17.819521"
       id="rect84" /><mask
       maskUnits="userSpaceOnUse"
       id="mask90"><rect
         style="fill:#ffffff;fill-opacity:1;stroke:none;stroke-width:0.221068"
         id="rect90"
         width="14.75765"
         height="73.67244"
         x="4784.0288"
         y="50.029629" /></mask></defs><g
     id="g113"
     transform="translate(5229.9996)"><rect
       style="fill:#f9f9f9;stroke:#f2f2f2;stroke-width:0.199877"
       id="rect110"
       width="338.46677"
       height="190.30013"
       x="0.099948399"
       y="0.099937439" /><g
       id="g112"
       stroke="none"
       stroke-width="1"
       fill="#000000"
       fill-rule="evenodd"
       transform="matrix(0.26458333,0,0,0.26458333,304.27083,5.3916041)"><path
         id="path110"
         d="M 58,29 C 58,13 45,0 29,0 13,0 0,13 0,29 0,45 13,58 29,58 45,58 58,45 58,29 Z" /><rect
         id="rect111"
         x="59"
         y="0"
         width="25"
         height="58" /><rect
         id="rect112"
         x="85"
         y="26"
         width="15"
         height="15" /><path
         id="path112"
         d="m 85,0 h 25 L 85,25 Z" /></g></g><g
     id="g28"
     transform="translate(3486.6671)"><rect
       style="fill:#f9f9f9;stroke:#f2f2f2;stroke-width:0.199877"
       id="rect12"
       width="338.46677"
       height="190.30013"
       x="0.099948399"
       y="0.099937439" /><g
       id="g25"
       stroke="none"
       stroke-width="1"
       fill="#000000"
       fill-rule="evenodd"
       transform="matrix(0.26458333,0,0,0.26458333,304.27083,5.3916041)"><path
         id="path12"
         d="M 58,29 C 58,13 45,0 29,0 13,0 0,13 0,29 0,45 13,58 29,58 45,58 58,45 58,29 Z" /><rect
         id="rect13"
         x="59"
         y="0"
         width="25"
         height="58" /><rect
         id="rect23"
         x="85"
         y="26"
         width="15"
         height="15" /><path
         id="path23"
         d="m 85,0 h 25 L 85,25 Z" /></g></g><g
     id="g9"
     transform="translate(2092)"><rect
       style="fill:#f9f9f9;stroke:#f2f2f2;stroke-width:0.199877"
       id="rect1"
       width="338.46677"
       height="190.30013"
       x="0.099948399"
       y="0.099937439" /><g
       id="g8"
       stroke="none"
       stroke-width="1"
       fill="#000000"
       fill-rule="evenodd"
       transform="matrix(0.26458333,0,0,0.26458333,304.27083,5.3916041)"><path
         id="path1"
         d="M 58,29 C 58,13 45,0 29,0 13,0 0,13 0,29 0,45 13,58 29,58 45,58 58,45 58,29 Z" /><rect
         id="rect7"
         x="59"
         y="0"
         width="25"
         height="58" /><rect
         id="rect8"
         x="85"
         y="26"
         width="15"
         height="15" /><path
         id="path8"
         d="m 85,0 h 25 L 85,25 Z" /></g></g><g
     id="g17"
     transform="translate(2440.6668)"><rect
       style="fill:#f9f9f9;stroke:#f2f2f2;stroke-width:0.199877"
       id="rect14"
       width="338.46677"
       height="190.30013"
       x="0.099948399"
       y="0.099937439" /><g
       id="g16"
       stroke="none"
       stroke-width="1"
       fill="#000000"
       fill-rule="evenodd"
       transform="matrix(0.26458333,0,0,0.26458333,304.27083,5.3916041)"><path
         id="path14"
         d="M 58,29 C 58,13 45,0 29,0 13,0 0,13 0,29 0,45 13,58 29,58 45,58 58,45 58,29 Z" /><rect
         id="rect15"
         x="59"
         y="0"
         width="25"
         height="58" /><rect
         id="rect16"
         x="85"
         y="26"
         width="15"
         height="15" /><path
         id="path16"
         d="m 85,0 h 25 L 85,25 Z" /></g></g><g
     inkscape:label="Layer 1"
     inkscape:groupmode="layer"
     id="layer1" /><title
     id="title1">openFrameworks Logo</title><g
     id="g2"><rect
       style="fill:#f9f9f9;stroke:#f2f2f2;stroke-width:0.199877"
       id="rect2"
       width="338.46677"
       height="190.30013"
       x="0.099948399"
       y="0.099937439" /><g
       id="Page-1"
       stroke="none"
       stroke-width="1"
       fill="#000000"
       fill-rule="evenodd"
       transform="matrix(0.26458333,0,0,0.26458333,304.27083,5.3916041)"><path
         id="Oval-1"
         d="M 58,29 C 58,13 45,0 29,0 13,0 0,13 0,29 0,45 13,58 29,58 45,58 58,45 58,29 Z" /><rect
         id="Rectangle-1"
         x="59"
         y="0"
         width="25"
         height="58" /><rect
         id="Rectangle-2"
         x="85"
         y="26"
         width="15"
         height="15" /><path
         id="Path-2"
         d="m 85,0 h 25 L 85,25 Z" /></g></g><text
     xml:space="preserve"
     style="font-style:normal;font-variant:normal;font-weight:900;font-stretch:normal;font-size:18.6766px;line-height:1.25;font-family:'Segoe UI';-inkscape-font-specification:'Segoe UI Heavy';text-align:center;text-anchor:middle;white-space:pre;inline-size:224.523;display:inline;stroke-width:1.33404"
     x="168.7816"
     y="100.67606"
     id="text2"
     transform="translate(0.98069603,1.2858394)"><tspan
       x="168.7816"
       y="100.67606"
       id="tspan1">Memoria en C++</tspan></text><g
     id="g6"
     transform="translate(348.66666)"
     sodipodi:insensitive="true"><rect
       style="fill:#f9f9f9;stroke:#f2f2f2;stroke-width:0.199877"
       id="rect3"
       width="338.46677"
       height="190.30013"
       x="0.099948399"
       y="0.099937439" /><g
       id="g5"
       stroke="none"
       stroke-width="1"
       fill="#000000"
       fill-rule="evenodd"
       transform="matrix(0.26458333,0,0,0.26458333,304.27083,5.3916041)"><path
         id="path3"
         d="M 58,29 C 58,13 45,0 29,0 13,0 0,13 0,29 0,45 13,58 29,58 45,58 58,45 58,29 Z" /><rect
         id="rect4"
         x="59"
         y="0"
         width="25"
         height="58" /><rect
         id="rect5"
         x="85"
         y="26"
         width="15"
         height="15" /><path
         id="path5"
         d="m 85,0 h 25 L 85,25 Z" /></g></g><g
     id="g12"
     transform="translate(697.33333)"
     sodipodi:insensitive="true"><rect
       style="fill:#f9f9f9;stroke:#f2f2f2;stroke-width:0.199877"
       id="rect9"
       width="338.46677"
       height="190.30013"
       x="0.099948399"
       y="0.099937439" /><g
       id="g11"
       stroke="none"
       stroke-width="1"
       fill="#000000"
       fill-rule="evenodd"
       transform="matrix(0.26458333,0,0,0.26458333,304.27083,5.3916041)"><path
         id="path9"
         d="M 58,29 C 58,13 45,0 29,0 13,0 0,13 0,29 0,45 13,58 29,58 45,58 58,45 58,29 Z" /><rect
         id="rect10"
         x="59"
         y="0"
         width="25"
         height="58" /><rect
         id="rect11"
         x="85"
         y="26"
         width="15"
         height="15" /><path
         id="path11"
         d="m 85,0 h 25 L 85,25 Z" /></g></g><g
     id="g40"
     transform="translate(1046.1,0.09994507)"
     sodipodi:insensitive="true"><rect
       style="fill:#f9f9f9;stroke:#f2f2f2;stroke-width:0.199877"
       id="rect37"
       width="338.46677"
       height="190.30013"
       x="0.099948399"
       y="0.099937439" /><g
       id="g39"
       stroke="none"
       stroke-width="1"
       fill="#000000"
       fill-rule="evenodd"
       transform="matrix(0.26458333,0,0,0.26458333,304.27083,5.3916041)"><path
         id="path37"
         d="M 58,29 C 58,13 45,0 29,0 13,0 0,13 0,29 0,45 13,58 29,58 45,58 58,45 58,29 Z" /><rect
         id="rect38"
         x="59"
         y="0"
         width="25"
         height="58" /><rect
         id="rect39"
         x="85"
         y="26"
         width="15"
         height="15" /><path
         id="path39"
         d="m 85,0 h 25 L 85,25 Z" /></g></g><g
     id="g75"
     transform="translate(1394.6668)"
     sodipodi:insensitive="true"><rect
       style="fill:#f9f9f9;stroke:#f2f2f2;stroke-width:0.199877"
       id="rect72"
       width="338.46677"
       height="190.30013"
       x="0.099948399"
       y="0.099937439" /><g
       id="g74"
       stroke="none"
       stroke-width="1"
       fill="#000000"
       fill-rule="evenodd"
       transform="matrix(0.26458333,0,0,0.26458333,304.27083,5.3916041)"><path
         id="path72"
         d="M 58,29 C 58,13 45,0 29,0 13,0 0,13 0,29 0,45 13,58 29,58 45,58 58,45 58,29 Z" /><rect
         id="rect73"
         x="59"
         y="0"
         width="25"
         height="58" /><rect
         id="rect74"
         x="85"
         y="26"
         width="15"
         height="15" /><path
         id="path74"
         d="m 85,0 h 25 L 85,25 Z" /></g></g><g
     id="g80"
     transform="translate(1743.3334)"><rect
       style="fill:#f9f9f9;stroke:#f2f2f2;stroke-width:0.199877"
       id="rect77"
       width="338.46677"
       height="190.30013"
       x="0.099948399"
       y="0.099937439" /><g
       id="g79"
       stroke="none"
       stroke-width="1"
       fill="#000000"
       fill-rule="evenodd"
       transform="matrix(0.26458333,0,0,0.26458333,304.27083,5.3916041)"><path
         id="path77"
         d="M 58,29 C 58,13 45,0 29,0 13,0 0,13 0,29 0,45 13,58 29,58 45,58 58,45 58,29 Z" /><rect
         id="rect78"
         x="59"
         y="0"
         width="25"
         height="58" /><rect
         id="rect79"
         x="85"
         y="26"
         width="15"
         height="15" /><path
         id="path79"
         d="m 85,0 h 25 L 85,25 Z" /></g></g><text
     xml:space="preserve"
     transform="scale(0.26458333)"
     id="text84"
     style="font-size:14px;line-height:1.25;font-family:'Segoe UI';-inkscape-font-specification:'Segoe UI';text-align:center;white-space:pre;shape-inside:url(#rect84);display:inline" /><metadata
     id="metadata110"><rdf:RDF><cc:Work
         rdf:about=""><dc:title>openFrameworks Logo</dc:title></cc:Work></rdf:RDF></metadata><text
     xml:space="preserve"
     style="font-size:3.70417px;line-height:1.25;font-family:'Segoe UI';-inkscape-font-specification:'Segoe UI';text-align:center;text-anchor:middle;stroke-width:0.264583"
     x="330.72916"
     y="56.636963"
     id="text11"><tspan
       sodipodi:role="line"
       id="tspan11"
       style="stroke-width:0.264583"
       x="330.72916"
       y="56.636963">J</tspan></text><text
     xml:space="preserve"
     style="font-size:3.70417px;line-height:1.25;font-family:'Segoe UI';-inkscape-font-specification:'Segoe UI';text-align:center;text-anchor:middle;stroke-width:0.264583"
     x="1446.5363"
     y="143.27167"
     id="text26"><tspan
       sodipodi:role="line"
       id="tspan26"
       style="stroke-width:0.264583"
       x="1446.5363"
       y="143.27167" /></text><text
     xml:space="preserve"
     style="font-size:11.2092px;line-height:1.25;font-family:'Segoe UI';-inkscape-font-specification:'Segoe UI';text-align:start;text-anchor:start;white-space:pre;inline-size:300.316;display:inline;stroke-width:0.800658"
     x="391.21085"
     y="71.250725"
     id="text6"
     transform="translate(-19.187789,5.8417964)"><tspan
       x="391.21085"
       y="71.250725"
       id="tspan2">Cuando creamos una variable estamos accediendo a un </tspan><tspan
       x="391.21085"
       y="85.262226"
       id="tspan3">espacio en la memoria RAM. Esta memoria está dividida en </tspan><tspan
       x="391.21085"
       y="99.273723"
       id="tspan4">bytes, que es usualmente el mínimo espacio de memoria </tspan><tspan
       x="391.21085"
       y="113.28522"
       id="tspan5">que podemos referenciar en C++.</tspan></text><text
     xml:space="preserve"
     transform="scale(0.26458333)"
     id="text4"
     style="font-size:14px;line-height:1.25;font-family:'Segoe UI';-inkscape-font-specification:'Segoe UI';text-align:center;white-space:pre;shape-inside:url(#rect6);display:inline" /><text
     xml:space="preserve"
     style="font-size:11.2092px;line-height:1.25;font-family:'Segoe UI';-inkscape-font-specification:'Segoe UI';text-align:start;text-anchor:start;white-space:pre;inline-size:300.316;display:inline;stroke-width:0.800658"
     x="391.21085"
     y="71.250725"
     id="text1"
     transform="translate(327.06245,0.14141583)"><tspan
       x="391.21085"
       y="71.250725"
       id="tspan6">Aunque un boolean conceptualmente sólo requiere un bit, </tspan><tspan
       x="391.21085"
       y="85.262226"
       id="tspan7">en la práctica ocupa un byte en la memoria RAM. Esto es así </tspan><tspan
       x="391.21085"
       y="99.273723"
       id="tspan8">porque la unidad mínima direccionable es el byte, el </tspan><tspan
       x="391.21085"
       y="113.28522"
       id="tspan9">procesador no puede acceder directamente a bits </tspan><tspan
       x="391.21085"
       y="127.29672"
       id="tspan10">individuales.</tspan></text><g
     id="g34"
     transform="translate(697.33338,4.0039877)"><text
       xml:space="preserve"
       style="font-size:11.2092px;line-height:1.25;font-family:'Segoe UI';-inkscape-font-specification:'Segoe UI';text-align:start;text-anchor:start;white-space:pre;inline-size:300.316;display:inline;stroke-width:0.800658"
       x="391.21085"
       y="71.250725"
       id="text21"
       transform="translate(675.36516,-24.961928)"><tspan
         x="391.21085"
         y="71.250725"
         id="tspan14">En C++ hay dos tipos de memorias: <tspan
   style="font-weight:bold"
   id="tspan12">Stack</tspan> y <tspan
   style="font-weight:bold"
   id="tspan13">Heap</tspan>. Stack es </tspan><tspan
         x="391.21085"
         y="85.262226"
         id="tspan15">la memoria que utilizamos hasta ahora en los ejemplos, </tspan><tspan
         x="391.21085"
         y="99.273723"
         id="tspan16">cuando creamos variables al interior de una función o en </tspan><tspan
         x="391.21085"
         y="113.28522"
         id="tspan17">el .h de nuestras clases.
</tspan><tspan
         x="391.21085"
         y="127.29672"
         id="tspan18">Cuando llamamos a una función en nuestra aplicación se </tspan><tspan
         x="391.21085"
         y="141.30822"
         id="tspan19">asigna un área de memoria a la llamada de esta función. Esa </tspan><tspan
         x="391.21085"
         y="155.31973"
         id="tspan20">llamada específica y solo ella puede accederla puede </tspan><tspan
         x="391.21085"
         y="169.33123"
         id="tspan21">accederla mientras dure.</tspan></text></g><text
     xml:space="preserve"
     style="font-size:11.2092px;line-height:1.25;font-family:'Segoe UI';-inkscape-font-specification:'Segoe UI';text-align:start;text-anchor:start;white-space:pre;inline-size:300.316;display:inline;stroke-width:0.800658"
     x="391.21085"
     y="71.250725"
     id="text39"
     transform="translate(1725.4153,5.923895)"><tspan
       x="391.21085"
       y="71.250725"
       id="tspan22">Como vimos en múltiples ejemplos, podemos declarar una </tspan><tspan
       x="391.21085"
       y="85.262226"
       id="tspan23">variable en una función y sólo vamos a poder accederla al </tspan><tspan
       x="391.21085"
       y="99.273723"
       id="tspan24">interior de esa función. Estas variables sólo existen al interior </tspan><tspan
       x="391.21085"
       y="113.28522"
       id="tspan25">del bloque en el que fueron definidas.</tspan></text><g
     id="g20"
     transform="translate(2440.6668)"
     sodipodi:insensitive="true"><rect
       style="fill:#f9f9f9;stroke:#f2f2f2;stroke-width:0.199877"
       id="rect17"
       width="338.46677"
       height="190.30013"
       x="0.099948399"
       y="0.099937439" /><g
       id="g19"
       stroke="none"
       stroke-width="1"
       fill="#000000"
       fill-rule="evenodd"
       transform="matrix(0.26458333,0,0,0.26458333,304.27083,5.3916041)"><path
         id="path17"
         d="M 58,29 C 58,13 45,0 29,0 13,0 0,13 0,29 0,45 13,58 29,58 45,58 58,45 58,29 Z" /><rect
         id="rect18"
         x="59"
         y="0"
         width="25"
         height="58" /><rect
         id="rect19"
         x="85"
         y="26"
         width="15"
         height="15" /><path
         id="path19"
         d="m 85,0 h 25 L 85,25 Z" /></g></g><g
     id="g24"
     transform="translate(2789.3336)"
     sodipodi:insensitive="true"><rect
       style="fill:#f9f9f9;stroke:#f2f2f2;stroke-width:0.199877"
       id="rect20"
       width="338.46677"
       height="190.30013"
       x="0.099948399"
       y="0.099937439" /><g
       id="g23"
       stroke="none"
       stroke-width="1"
       fill="#000000"
       fill-rule="evenodd"
       transform="matrix(0.26458333,0,0,0.26458333,304.27083,5.3916041)"><path
         id="path20"
         d="M 58,29 C 58,13 45,0 29,0 13,0 0,13 0,29 0,45 13,58 29,58 45,58 58,45 58,29 Z" /><rect
         id="rect21"
         x="59"
         y="0"
         width="25"
         height="58" /><rect
         id="rect22"
         x="85"
         y="26"
         width="15"
         height="15" /><path
         id="path22"
         d="m 85,0 h 25 L 85,25 Z" /></g></g><g
     id="g27"
     transform="translate(3138.0003)"
     sodipodi:insensitive="true"><rect
       style="fill:#f9f9f9;stroke:#f2f2f2;stroke-width:0.199877"
       id="rect24"
       width="338.46677"
       height="190.30013"
       x="0.099948399"
       y="0.099937439" /><g
       id="g26"
       stroke="none"
       stroke-width="1"
       fill="#000000"
       fill-rule="evenodd"
       transform="matrix(0.26458333,0,0,0.26458333,304.27083,5.3916041)"><path
         id="path24"
         d="M 58,29 C 58,13 45,0 29,0 13,0 0,13 0,29 0,45 13,58 29,58 45,58 58,45 58,29 Z" /><rect
         id="rect25"
         x="59"
         y="0"
         width="25"
         height="58" /><rect
         id="rect26"
         x="85"
         y="26"
         width="15"
         height="15" /><path
         id="path26"
         d="m 85,0 h 25 L 85,25 Z" /></g></g><text
     xml:space="preserve"
     style="font-size:11.2092px;line-height:1.25;font-family:'Segoe UI';-inkscape-font-specification:'Segoe UI';text-align:start;text-anchor:start;white-space:pre;inline-size:300.316;display:inline;stroke-width:0.800658"
     x="391.21085"
     y="71.250725"
     id="text30"
     transform="translate(2422.749,5.923895)"><tspan
       x="391.21085"
       y="71.250725"
       id="tspan28">Nos referimos a este alcance de las variables como <tspan
   style="font-weight:bold"
   id="tspan27">scope</tspan> o </tspan><tspan
       x="391.21085"
       y="85.262226"
       id="tspan29">ámbito. Si declaramos una variable en el .h de nuestra clase, </tspan><tspan
       x="391.21085"
       y="99.273723"
       id="tspan30">por ejemplo, esta variable es accesible por todo el objeto de </tspan><tspan
       x="391.21085"
       y="113.28522"
       id="tspan31">nuestra clase. Su ámbito es más amplio.</tspan></text><text
     xml:space="preserve"
     style="font-size:11.2092px;line-height:1.25;font-family:'Segoe UI';-inkscape-font-specification:'Segoe UI';text-align:start;text-anchor:start;white-space:pre;inline-size:300.316;display:inline;stroke-width:0.800658"
     x="391.21085"
     y="71.250725"
     id="text31"
     transform="translate(2765.9863,5.923895)"><tspan
       x="391.21085"
       y="71.250725"
       id="tspan32">Siguen, de todas formas, comportándose como variables en </tspan><tspan
       x="391.21085"
       y="85.262226"
       id="tspan34">el <tspan
   style="font-weight:bold"
   id="tspan33">stack</tspan> creadas en funciones. Sólo existen en el contexto </tspan><tspan
       x="391.21085"
       y="99.273723"
       id="tspan35">del bloque en el que fueron definidas, en este caso el objeto </tspan><tspan
       x="391.21085"
       y="113.28522"
       id="tspan36">que las contiene.</tspan></text><text
     xml:space="preserve"
     style="font-size:11.2092px;line-height:1.25;font-family:'Segoe UI';-inkscape-font-specification:'Segoe UI';text-align:start;text-anchor:start;white-space:pre;inline-size:300.316;display:inline;stroke-width:0.800658"
     x="391.21085"
     y="71.250725"
     id="text32"
     transform="translate(3118.2352,5.923895)"><tspan
       x="391.21085"
       y="71.250725"
       id="tspan38">La memoria <tspan
   style="font-weight:bold"
   id="tspan37">stack</tspan> está usualmente limitada a unos pocos </tspan><tspan
       x="391.21085"
       y="85.262226"
       id="tspan39">MB, aunque depende del OS y es configurable. La memoria </tspan><tspan
       x="391.21085"
       y="99.273723"
       id="tspan41"><tspan
   style="font-weight:bold"
   id="tspan40">heap</tspan>, por el contrario, solo está limitada por la memoria </tspan><tspan
       x="391.21085"
       y="113.28522"
       id="tspan42">disponible en el sistema.</tspan></text><g
     id="g46"
     transform="translate(3835.3336)"><rect
       style="fill:#f9f9f9;stroke:#f2f2f2;stroke-width:0.199877"
       id="rect43"
       width="338.46677"
       height="190.30013"
       x="0.099948399"
       y="0.099937439" /><g
       id="g45"
       stroke="none"
       stroke-width="1"
       fill="#000000"
       fill-rule="evenodd"
       transform="matrix(0.26458333,0,0,0.26458333,304.27083,5.3916041)"><path
         id="path43"
         d="M 58,29 C 58,13 45,0 29,0 13,0 0,13 0,29 0,45 13,58 29,58 45,58 58,45 58,29 Z" /><rect
         id="rect44"
         x="59"
         y="0"
         width="25"
         height="58" /><rect
         id="rect45"
         x="85"
         y="26"
         width="15"
         height="15" /><path
         id="path45"
         d="m 85,0 h 25 L 85,25 Z" /></g></g><text
     xml:space="preserve"
     style="font-size:11.2092px;line-height:1.25;font-family:'Segoe UI';-inkscape-font-specification:'Segoe UI';text-align:start;text-anchor:start;white-space:pre;inline-size:300.316;display:inline;stroke-width:0.800658"
     x="391.21085"
     y="71.250725"
     id="text96"
     transform="translate(677.65015,-15.20556)"><tspan
       x="391.21085"
       y="71.250725"
       id="tspan43">Cuando declaramos un int, por ejemplo, reservamos un </tspan><tspan
       x="391.21085"
       y="85.262226"
       id="tspan44">espacio en memoria. Si lo imprimimos antes de asignar un </tspan><tspan
       x="391.21085"
       y="99.273723"
       id="tspan45">valor su valor va a ser indefinido. La mayoría de las veces </tspan><tspan
       x="391.21085"
       y="113.28522"
       id="tspan46">vamos a obtener 0 porque el sistema operativo limpió la </tspan><tspan
       x="391.21085"
       y="127.29672"
       id="tspan47">memoria por razones de seguridad. Si estamos reutilizando </tspan><tspan
       x="391.21085"
       y="141.30822"
       id="tspan48">memoria utilizada anteriormente podemos obtener </tspan><tspan
       x="391.21085"
       y="155.31973"
       id="tspan49">cualquier valor que haya almacenado.</tspan></text><text
     xml:space="preserve"
     style="font-size:11.2092px;line-height:1.25;font-family:'Segoe UI';-inkscape-font-specification:'Segoe UI';text-align:start;text-anchor:start;white-space:pre;inline-size:300.316;display:inline;stroke-width:0.800658"
     x="391.21085"
     y="71.250725"
     id="text97"
     transform="translate(1028.3147,21.076563)"><tspan
       x="391.21085"
       y="71.250725"
       id="tspan50">Por eso cuando escribimos clases solemos inicializar todos </tspan><tspan
       x="391.21085"
       y="85.262226"
       id="tspan51">los valores en el constructor.</tspan></text><text
     xml:space="preserve"
     style="font-size:11.2092px;line-height:1.25;font-family:'Segoe UI';-inkscape-font-specification:'Segoe UI';text-align:start;text-anchor:start;white-space:pre;inline-size:300.316;display:inline;stroke-width:0.800658"
     x="391.21085"
     y="71.250725"
     id="text22-5"
     transform="translate(2111.1223,-7.5156525)"><tspan
       x="391.21085"
       y="71.250725"
       id="tspan53"><tspan
         style="font-weight:300;-inkscape-font-specification:'Segoe UI Light'"
         id="tspan52">for (int i = 0; i &lt; 10; i++)
</tspan></tspan><tspan
       x="391.21085"
       y="85.262226"
       id="tspan55"><tspan
         style="font-weight:300;-inkscape-font-specification:'Segoe UI Light'"
         id="tspan54">{
</tspan></tspan><tspan
       x="391.21085"
       y="99.273723"
       id="tspan57"><tspan
         style="font-weight:300;-inkscape-font-specification:'Segoe UI Light'"
         id="tspan56">    int a = 5;
</tspan></tspan><tspan
       x="391.21085"
       y="113.28522"
       id="tspan59"><tspan
         style="font-weight:300;-inkscape-font-specification:'Segoe UI Light'"
         id="tspan58">}
</tspan></tspan><tspan
       x="391.21085"
       y="127.29672"
       id="tspan61"><tspan
         style="font-weight:300;-inkscape-font-specification:'Segoe UI Light'"
         id="tspan60">
</tspan></tspan><tspan
       x="391.21085"
       y="141.30822"
       id="tspan63"><tspan
         style="font-weight:300;-inkscape-font-specification:'Segoe UI Light'"
         id="tspan62">cout &lt;&lt; a &lt;&lt; endl; // da un error! a no existe.</tspan></tspan></text><text
     xml:space="preserve"
     style="font-size:11.2092px;line-height:1.25;font-family:'Segoe UI';-inkscape-font-specification:'Segoe UI';text-align:start;text-anchor:start;white-space:pre;inline-size:300.316;display:inline;stroke-width:0.800658"
     x="391.21085"
     y="71.250725"
     id="text48"
     transform="translate(4861.2174,12.817442)"><tspan
       x="391.21085"
       y="71.250725"
       id="tspan65">En oF se evita usar el <tspan
   style="font-weight:bold"
   id="tspan64">heap</tspan> directamente. Los contenedores </tspan><tspan
       x="391.21085"
       y="85.262226"
       id="tspan66">como vectores y los objetos complejos como imágenes </tspan><tspan
       x="391.21085"
       y="99.273723"
       id="tspan68">suelen usar memoria en el <tspan
   style="font-weight:bold"
   id="tspan67">heap</tspan>, facilitando esta tarea.</tspan></text><g
     id="g100"
     transform="translate(0,-14.859406)"><text
       xml:space="preserve"
       style="font-size:11.2092px;line-height:1.25;font-family:'Segoe UI';-inkscape-font-specification:'Segoe UI';text-align:start;text-anchor:start;white-space:pre;inline-size:300.316;display:inline;stroke-width:0.800658"
       x="391.21085"
       y="71.250725"
       id="text33"
       transform="translate(3463.8066,-5.9501745)"><tspan
         x="391.21085"
         y="71.250725"
         id="tspan69">Si trabajamos con grandes cantidades de datos, por ejemplo </tspan><tspan
         x="391.21085"
         y="85.262226"
         id="tspan70">en un sistema de partículas que contiene millones de </tspan><tspan
         x="391.21085"
         y="99.273723"
         id="tspan72">elementos, podemos crear variables en el <tspan
   style="font-weight:bold"
   id="tspan71">heap</tspan> usando la </tspan><tspan
         x="391.21085"
         y="113.28522"
         id="tspan75">palabra clave <tspan
   style="font-weight:bold"
   id="tspan73">new</tspan> y <tspan
   style="font-weight:bold"
   id="tspan74">punteros</tspan>.</tspan></text><text
       xml:space="preserve"
       style="font-size:11.2092px;line-height:1.25;font-family:'Segoe UI';-inkscape-font-specification:'Segoe UI';text-align:start;text-anchor:start;white-space:pre;inline-size:300.316;display:inline;stroke-width:0.800658"
       x="391.21085"
       y="71.250725"
       id="text72"
       transform="translate(3548.3189,75.375574)"><tspan
         x="391.21085"
         y="71.250725"
         id="tspan77"><tspan
           style="font-weight:300;-inkscape-font-specification:'Segoe UI Light'"
           id="tspan76">Particle* p1 = new Particle();
</tspan></tspan><tspan
         x="391.21085"
         y="85.262226"
         id="tspan79"><tspan
           style="font-weight:300;-inkscape-font-specification:'Segoe UI Light'"
           id="tspan78">p-&gt;pos.set(20,20);</tspan></tspan></text></g><g
     id="g82"
     transform="translate(4184.0001)"><rect
       style="fill:#f9f9f9;stroke:#f2f2f2;stroke-width:0.199877"
       id="rect75"
       width="338.46677"
       height="190.30013"
       x="0.099948399"
       y="0.099937439" /><g
       id="g81"
       stroke="none"
       stroke-width="1"
       fill="#000000"
       fill-rule="evenodd"
       transform="matrix(0.26458333,0,0,0.26458333,304.27083,5.3916041)"><path
         id="path75"
         d="M 58,29 C 58,13 45,0 29,0 13,0 0,13 0,29 0,45 13,58 29,58 45,58 58,45 58,29 Z" /><rect
         id="rect76"
         x="59"
         y="0"
         width="25"
         height="58" /><rect
         id="rect80"
         x="85"
         y="26"
         width="15"
         height="15" /><path
         id="path80"
         d="m 85,0 h 25 L 85,25 Z" /></g></g><g
     id="g86"
     transform="translate(4532.6666)"
     sodipodi:insensitive="true"><rect
       style="fill:#f9f9f9;stroke:#f2f2f2;stroke-width:0.199877"
       id="rect82"
       width="338.46677"
       height="190.30013"
       x="0.099948399"
       y="0.099937439" /><g
       id="g85"
       stroke="none"
       stroke-width="1"
       fill="#000000"
       fill-rule="evenodd"
       transform="matrix(0.26458333,0,0,0.26458333,304.27083,5.3916041)"><path
         id="path82"
         d="M 58,29 C 58,13 45,0 29,0 13,0 0,13 0,29 0,45 13,58 29,58 45,58 58,45 58,29 Z" /><rect
         id="rect83"
         x="59"
         y="0"
         width="25"
         height="58" /><rect
         id="rect85"
         x="85"
         y="26"
         width="15"
         height="15" /><path
         id="path85"
         d="m 85,0 h 25 L 85,25 Z" /></g></g><g
     id="g89"
     transform="translate(4881.3331)"><rect
       style="fill:#f9f9f9;stroke:#f2f2f2;stroke-width:0.199877"
       id="rect86"
       width="338.46677"
       height="190.30013"
       x="0.099948399"
       y="0.099937439" /><g
       id="g88"
       stroke="none"
       stroke-width="1"
       fill="#000000"
       fill-rule="evenodd"
       transform="matrix(0.26458333,0,0,0.26458333,304.27083,5.3916041)"><path
         id="path86"
         d="M 58,29 C 58,13 45,0 29,0 13,0 0,13 0,29 0,45 13,58 29,58 45,58 58,45 58,29 Z" /><rect
         id="rect87"
         x="59"
         y="0"
         width="25"
         height="58" /><rect
         id="rect88"
         x="85"
         y="26"
         width="15"
         height="15" /><path
         id="path88"
         d="m 85,0 h 25 L 85,25 Z" /></g></g><g
     id="g101"
     transform="translate(0,-9.6477183)"><text
       xml:space="preserve"
       style="font-size:11.2092px;line-height:1.25;font-family:'Segoe UI';-inkscape-font-specification:'Segoe UI';text-align:start;text-anchor:start;white-space:pre;inline-size:300.316;display:inline;stroke-width:0.800658"
       x="391.21085"
       y="71.250725"
       id="text98"
       transform="translate(3811.8628,15.489515)"><tspan
         x="391.21085"
         y="71.250725"
         id="tspan81">Podemos pensar en el <tspan
   style="font-weight:bold"
   id="tspan80">heap</tspan> como en una memoria global. </tspan><tspan
         x="391.21085"
         y="85.262226"
         id="tspan82">Sólo el bloque al que pertenece el stack puede acceder a sus </tspan><tspan
         x="391.21085"
         y="99.273723"
         id="tspan83">contenidos, mientras que las variables creadas en el heap </tspan><tspan
         x="391.21085"
         y="113.28522"
         id="tspan84">pueden accederse desde cualquier lado.</tspan></text></g><g
     id="g105"><text
       xml:space="preserve"
       style="font-size:11.2092px;line-height:1.25;font-family:'Segoe UI';-inkscape-font-specification:'Segoe UI';text-align:start;text-anchor:start;white-space:pre;inline-size:300.316;display:inline;stroke-width:0.800658"
       x="391.21085"
       y="71.250725"
       id="text103"
       transform="translate(4165.9998,-16.044961)"><tspan
         x="391.21085"
         y="71.250725"
         id="tspan86">Las variables en el <tspan
   style="font-weight:bold"
   id="tspan85">heap</tspan> sobreviven al bloque que las creó, </tspan><tspan
         x="391.21085"
         y="85.262226"
         id="tspan87">por lo que debemos eliminarlas explícitamente.</tspan></text><text
       xml:space="preserve"
       style="font-size:11.2092px;line-height:1.25;font-family:'Segoe UI';-inkscape-font-specification:'Segoe UI';text-align:start;text-anchor:start;white-space:pre;inline-size:300.316;display:inline;stroke-width:0.800658"
       x="391.21085"
       y="71.250725"
       id="text104"
       transform="translate(4245.8544,41.904249)"><tspan
         x="391.21085"
         y="71.250725"
         id="tspan89"><tspan
           style="font-weight:300;-inkscape-font-specification:'Segoe UI Light'"
           id="tspan88">Particle* p1 = new Particle();
</tspan></tspan><tspan
         x="391.21085"
         y="85.262226"
         id="tspan91"><tspan
           style="font-weight:300;-inkscape-font-specification:'Segoe UI Light'"
           id="tspan90">p-&gt;pos.set(20,20);
</tspan></tspan><tspan
         x="391.21085"
         y="99.273723"
         id="tspan93"><tspan
           style="font-weight:300;-inkscape-font-specification:'Segoe UI Light'"
           id="tspan92">delete p1;</tspan></tspan></text></g><text
     xml:space="preserve"
     style="font-size:11.2092px;line-height:1.25;font-family:'Segoe UI';-inkscape-font-specification:'Segoe UI';text-align:start;text-anchor:start;white-space:pre;inline-size:300.316;display:inline;stroke-width:0.800658"
     x="391.21085"
     y="71.250725"
     id="text105"
     transform="translate(4566.7415,-7.729109)"><tspan
       x="391.21085"
       y="71.250725"
       id="tspan95"><tspan
         style="font-weight:300;-inkscape-font-specification:'Segoe UI Light'"
         id="tspan94">void ofApp::draw()
</tspan></tspan><tspan
       x="391.21085"
       y="85.262226"
       id="tspan97"><tspan
         style="font-weight:300;-inkscape-font-specification:'Segoe UI Light'"
         id="tspan96">{
</tspan></tspan><tspan
       x="391.21085"
       y="99.273723"
       id="tspan99"><tspan
         style="font-weight:300;-inkscape-font-specification:'Segoe UI Light'"
         id="tspan98">    Particle* p1 = new Particle();
</tspan></tspan><tspan
       x="391.21085"
       y="113.28522"
       id="tspan101"><tspan
         style="font-weight:300;-inkscape-font-specification:'Segoe UI Light'"
         id="tspan100">    p1-&gt;setup();
</tspan></tspan><tspan
       x="391.21085"
       y="127.29672"
       id="tspan103"><tspan
         style="font-weight:300;-inkscape-font-specification:'Segoe UI Light'"
         id="tspan102">    p1.draw(); //no borramos la partícula!
</tspan></tspan><tspan
       x="391.21085"
       y="141.30822"
       id="tspan105"><tspan
         style="font-weight:300;-inkscape-font-specification:'Segoe UI Light'"
         id="tspan104">}</tspan></tspan></text><g
     id="g116"
     transform="translate(5578.6661)"><rect
       style="fill:#f9f9f9;stroke:#f2f2f2;stroke-width:0.199877"
       id="rect113"
       width="338.46677"
       height="190.30013"
       x="0.099948399"
       y="0.099937439" /><g
       id="g115"
       stroke="none"
       stroke-width="1"
       fill="#000000"
       fill-rule="evenodd"
       transform="matrix(0.26458333,0,0,0.26458333,304.27083,5.3916041)"><path
         id="path113"
         d="M 58,29 C 58,13 45,0 29,0 13,0 0,13 0,29 0,45 13,58 29,58 45,58 58,45 58,29 Z" /><rect
         id="rect114"
         x="59"
         y="0"
         width="25"
         height="58" /><rect
         id="rect115"
         x="85"
         y="26"
         width="15"
         height="15" /><path
         id="path115"
         d="m 85,0 h 25 L 85,25 Z" /></g></g><text
     xml:space="preserve"
     style="font-size:11.2092px;line-height:1.25;font-family:'Segoe UI';-inkscape-font-specification:'Segoe UI';text-align:start;text-anchor:start;white-space:pre;inline-size:300.316;display:inline;stroke-width:0.800658"
     x="391.21085"
     y="71.250725"
     id="text57"
     transform="translate(5217.6341,12.847545)"><tspan
       x="391.21085"
       y="71.250725"
       id="tspan107">Un <tspan
   style="font-style:italic"
   id="tspan106">vector</tspan>, por ejemplo, tienen su objeto contenedor en </tspan><tspan
       x="391.21085"
       y="85.262226"
       id="tspan110"><tspan
   style="font-weight:bold"
   id="tspan108">stack</tspan>, pero los datos internos en <tspan
   style="font-weight:bold"
   id="tspan109">heap</tspan>. Puede contener </tspan><tspan
       x="391.21085"
       y="99.273723"
       id="tspan111">nuestro sistema de millones de partículas sin problemas.</tspan></text></svg>
